<mxfile host="app.diagrams.net" agent="Mozilla/5.0 (Windows NT 10.0; Win64; x64) AppleWebKit/537.36 (KHTML, like Gecko) Chrome/137.0.0.0 Safari/537.36" version="27.1.5">
  <diagram id="C5RBs43oDa-KdzZeNtuy" name="Page-1">
    <mxGraphModel dx="1426" dy="743" grid="1" gridSize="10" guides="1" tooltips="1" connect="1" arrows="1" fold="1" page="1" pageScale="1" pageWidth="827" pageHeight="1169" math="0" shadow="0">
      <root>
        <mxCell id="WIyWlLk6GJQsqaUBKTNV-0" />
        <mxCell id="WIyWlLk6GJQsqaUBKTNV-1" parent="WIyWlLk6GJQsqaUBKTNV-0" />
        <mxCell id="kzZwCRHrltZtxs_X04k_-8" value="&lt;h1 style=&quot;margin-top: 0px;&quot;&gt;Projeto Legenda&lt;/h1&gt;&lt;p&gt;Projeto com intuito de criar um programa variavel com legenda automatica usando AI&lt;/p&gt;" style="text;html=1;whiteSpace=wrap;overflow=hidden;rounded=0;" parent="WIyWlLk6GJQsqaUBKTNV-1" vertex="1">
          <mxGeometry x="10" width="210" height="120" as="geometry" />
        </mxCell>
        <mxCell id="kzZwCRHrltZtxs_X04k_-9" value="Resumo da Projeto" style="swimlane;html=1;startSize=20;horizontal=0;childLayout=flowLayout;flowOrientation=west;resizable=0;interRankCellSpacing=50;containerType=tree;fontSize=12;" parent="WIyWlLk6GJQsqaUBKTNV-1" vertex="1">
          <mxGeometry x="210" y="10" width="630" height="210" as="geometry" />
        </mxCell>
        <mxCell id="kzZwCRHrltZtxs_X04k_-23" style="edgeStyle=orthogonalEdgeStyle;rounded=0;orthogonalLoop=1;jettySize=auto;html=1;exitX=1;exitY=1;exitDx=0;exitDy=0;entryX=0;entryY=0.5;entryDx=0;entryDy=0;noEdgeStyle=1;orthogonal=1;" parent="kzZwCRHrltZtxs_X04k_-9" source="kzZwCRHrltZtxs_X04k_-10" target="kzZwCRHrltZtxs_X04k_-21" edge="1">
          <mxGeometry relative="1" as="geometry">
            <Array as="points">
              <mxPoint x="152" y="102.5" />
              <mxPoint x="178" y="165" />
            </Array>
          </mxGeometry>
        </mxCell>
        <mxCell id="kzZwCRHrltZtxs_X04k_-10" value="Speaking" style="whiteSpace=wrap;html=1;" parent="kzZwCRHrltZtxs_X04k_-9" vertex="1">
          <mxGeometry x="40" y="83.75" width="100" height="22.5" as="geometry" />
        </mxCell>
        <mxCell id="kzZwCRHrltZtxs_X04k_-11" value="Criptografia" style="whiteSpace=wrap;html=1;" parent="kzZwCRHrltZtxs_X04k_-9" vertex="1">
          <mxGeometry x="190" y="20" width="100" height="30" as="geometry" />
        </mxCell>
        <mxCell id="kzZwCRHrltZtxs_X04k_-12" value="" style="html=1;rounded=1;curved=0;sourcePerimeterSpacing=0;targetPerimeterSpacing=0;startSize=6;endSize=6;noEdgeStyle=1;orthogonal=1;" parent="kzZwCRHrltZtxs_X04k_-9" source="kzZwCRHrltZtxs_X04k_-10" target="kzZwCRHrltZtxs_X04k_-11" edge="1">
          <mxGeometry relative="1" as="geometry">
            <Array as="points">
              <mxPoint x="152" y="87.5" />
              <mxPoint x="178" y="35" />
            </Array>
          </mxGeometry>
        </mxCell>
        <mxCell id="kzZwCRHrltZtxs_X04k_-13" value="Gerando texto" style="whiteSpace=wrap;html=1;" parent="kzZwCRHrltZtxs_X04k_-9" vertex="1">
          <mxGeometry x="190" y="80" width="100" height="30" as="geometry" />
        </mxCell>
        <mxCell id="kzZwCRHrltZtxs_X04k_-14" value="" style="html=1;rounded=1;curved=0;sourcePerimeterSpacing=0;targetPerimeterSpacing=0;startSize=6;endSize=6;noEdgeStyle=1;orthogonal=1;" parent="kzZwCRHrltZtxs_X04k_-9" source="kzZwCRHrltZtxs_X04k_-10" target="kzZwCRHrltZtxs_X04k_-13" edge="1">
          <mxGeometry relative="1" as="geometry">
            <Array as="points">
              <mxPoint x="154" y="95" />
              <mxPoint x="178" y="95" />
            </Array>
          </mxGeometry>
        </mxCell>
        <mxCell id="kzZwCRHrltZtxs_X04k_-26" style="edgeStyle=orthogonalEdgeStyle;rounded=0;orthogonalLoop=1;jettySize=auto;html=1;exitX=1;exitY=0.5;exitDx=0;exitDy=0;entryX=0;entryY=0.5;entryDx=0;entryDy=0;noEdgeStyle=1;orthogonal=1;" parent="kzZwCRHrltZtxs_X04k_-9" source="kzZwCRHrltZtxs_X04k_-21" target="kzZwCRHrltZtxs_X04k_-25" edge="1">
          <mxGeometry relative="1" as="geometry">
            <Array as="points">
              <mxPoint x="302" y="165" />
              <mxPoint x="328" y="160" />
            </Array>
          </mxGeometry>
        </mxCell>
        <mxCell id="kzZwCRHrltZtxs_X04k_-21" value="Interligencia artificial" style="whiteSpace=wrap;html=1;" parent="kzZwCRHrltZtxs_X04k_-9" vertex="1">
          <mxGeometry x="190" y="140" width="100" height="50" as="geometry" />
        </mxCell>
        <mxCell id="kzZwCRHrltZtxs_X04k_-56" style="edgeStyle=orthogonalEdgeStyle;rounded=0;orthogonalLoop=1;jettySize=auto;html=1;exitX=1;exitY=0.5;exitDx=0;exitDy=0;entryX=0;entryY=0.75;entryDx=0;entryDy=0;noEdgeStyle=1;orthogonal=1;" parent="kzZwCRHrltZtxs_X04k_-9" source="kzZwCRHrltZtxs_X04k_-25" target="kzZwCRHrltZtxs_X04k_-52" edge="1">
          <mxGeometry relative="1" as="geometry">
            <Array as="points">
              <mxPoint x="472" y="160" />
              <mxPoint x="498" y="110" />
            </Array>
          </mxGeometry>
        </mxCell>
        <mxCell id="kzZwCRHrltZtxs_X04k_-25" value="Correção, e buscando palavras aproximadas" style="whiteSpace=wrap;html=1;" parent="kzZwCRHrltZtxs_X04k_-9" vertex="1">
          <mxGeometry x="340" y="130" width="120" height="60" as="geometry" />
        </mxCell>
        <mxCell id="kzZwCRHrltZtxs_X04k_-51" value="" style="html=1;rounded=1;curved=0;sourcePerimeterSpacing=0;targetPerimeterSpacing=0;startSize=6;endSize=6;noEdgeStyle=1;orthogonal=1;" parent="kzZwCRHrltZtxs_X04k_-9" source="kzZwCRHrltZtxs_X04k_-13" target="kzZwCRHrltZtxs_X04k_-52" edge="1">
          <mxGeometry relative="1" as="geometry">
            <mxPoint x="1230" y="585" as="sourcePoint" />
            <Array as="points">
              <mxPoint x="302" y="95" />
              <mxPoint x="315" y="100" />
              <mxPoint x="485" y="100" />
              <mxPoint x="496" y="100" />
            </Array>
          </mxGeometry>
        </mxCell>
        <mxCell id="kzZwCRHrltZtxs_X04k_-52" value="Legenda amostra" style="whiteSpace=wrap;html=1;" parent="kzZwCRHrltZtxs_X04k_-9" vertex="1">
          <mxGeometry x="510" y="85" width="100" height="30" as="geometry" />
        </mxCell>
        <mxCell id="kzZwCRHrltZtxs_X04k_-58" value="" style="html=1;rounded=1;curved=0;sourcePerimeterSpacing=0;targetPerimeterSpacing=0;startSize=6;endSize=6;noEdgeStyle=1;orthogonal=1;" parent="kzZwCRHrltZtxs_X04k_-9" source="kzZwCRHrltZtxs_X04k_-11" target="kzZwCRHrltZtxs_X04k_-59" edge="1">
          <mxGeometry relative="1" as="geometry">
            <mxPoint x="1070" y="498" as="sourcePoint" />
            <Array as="points">
              <mxPoint x="302" y="35" />
              <mxPoint x="328" y="45" />
            </Array>
          </mxGeometry>
        </mxCell>
        <mxCell id="kzZwCRHrltZtxs_X04k_-59" value="Privacidade com a chave de Descrpytocrafia" style="whiteSpace=wrap;html=1;" parent="kzZwCRHrltZtxs_X04k_-9" vertex="1">
          <mxGeometry x="350" y="20" width="100" height="50" as="geometry" />
        </mxCell>
        <mxCell id="kzZwCRHrltZtxs_X04k_-65" value="" style="curved=1;endArrow=classic;html=1;rounded=0;exitX=1;exitY=0.5;exitDx=0;exitDy=0;entryX=0;entryY=0;entryDx=0;entryDy=0;noEdgeStyle=1;orthogonal=1;" parent="kzZwCRHrltZtxs_X04k_-9" source="kzZwCRHrltZtxs_X04k_-59" target="kzZwCRHrltZtxs_X04k_-52" edge="1">
          <mxGeometry width="50" height="50" relative="1" as="geometry">
            <mxPoint x="740" y="228.25" as="sourcePoint" />
            <mxPoint x="790" y="178.25" as="targetPoint" />
            <Array as="points">
              <mxPoint x="472" y="45" />
              <mxPoint x="498" y="90" />
            </Array>
          </mxGeometry>
        </mxCell>
        <mxCell id="KUXQ1VHfoV5WeQ_K9mZH-1" value="Speking no mic" style="rounded=0;whiteSpace=wrap;html=1;" parent="WIyWlLk6GJQsqaUBKTNV-1" vertex="1">
          <mxGeometry x="40" y="440" width="95" height="30" as="geometry" />
        </mxCell>
        <mxCell id="KUXQ1VHfoV5WeQ_K9mZH-4" value="" style="curved=1;endArrow=classic;html=1;rounded=0;exitX=1;exitY=0.5;exitDx=0;exitDy=0;entryX=0;entryY=0.5;entryDx=0;entryDy=0;" parent="WIyWlLk6GJQsqaUBKTNV-1" source="KUXQ1VHfoV5WeQ_K9mZH-1" target="KUXQ1VHfoV5WeQ_K9mZH-5" edge="1">
          <mxGeometry width="50" height="50" relative="1" as="geometry">
            <mxPoint x="140" y="450" as="sourcePoint" />
            <mxPoint x="220" y="390" as="targetPoint" />
            <Array as="points">
              <mxPoint x="190" y="460" />
              <mxPoint x="140" y="410" />
            </Array>
          </mxGeometry>
        </mxCell>
        <mxCell id="KUXQ1VHfoV5WeQ_K9mZH-10" value="" style="edgeStyle=orthogonalEdgeStyle;rounded=0;orthogonalLoop=1;jettySize=auto;html=1;" parent="WIyWlLk6GJQsqaUBKTNV-1" source="KUXQ1VHfoV5WeQ_K9mZH-5" target="KUXQ1VHfoV5WeQ_K9mZH-9" edge="1">
          <mxGeometry relative="1" as="geometry" />
        </mxCell>
        <mxCell id="KUXQ1VHfoV5WeQ_K9mZH-5" value="Recptor" style="rounded=0;whiteSpace=wrap;html=1;" parent="WIyWlLk6GJQsqaUBKTNV-1" vertex="1">
          <mxGeometry x="190" y="390" width="120" height="30" as="geometry" />
        </mxCell>
        <mxCell id="KUXQ1VHfoV5WeQ_K9mZH-12" value="" style="edgeStyle=orthogonalEdgeStyle;rounded=0;orthogonalLoop=1;jettySize=auto;html=1;" parent="WIyWlLk6GJQsqaUBKTNV-1" source="KUXQ1VHfoV5WeQ_K9mZH-9" target="KUXQ1VHfoV5WeQ_K9mZH-11" edge="1">
          <mxGeometry relative="1" as="geometry" />
        </mxCell>
        <mxCell id="KUXQ1VHfoV5WeQ_K9mZH-15" style="edgeStyle=orthogonalEdgeStyle;rounded=0;orthogonalLoop=1;jettySize=auto;html=1;exitX=1;exitY=0;exitDx=0;exitDy=0;entryX=0;entryY=0.5;entryDx=0;entryDy=0;" parent="WIyWlLk6GJQsqaUBKTNV-1" source="KUXQ1VHfoV5WeQ_K9mZH-9" target="KUXQ1VHfoV5WeQ_K9mZH-13" edge="1">
          <mxGeometry relative="1" as="geometry" />
        </mxCell>
        <mxCell id="KUXQ1VHfoV5WeQ_K9mZH-9" value="Entendendo" style="rounded=0;whiteSpace=wrap;html=1;" parent="WIyWlLk6GJQsqaUBKTNV-1" vertex="1">
          <mxGeometry x="380" y="390" width="120" height="30" as="geometry" />
        </mxCell>
        <mxCell id="KUXQ1VHfoV5WeQ_K9mZH-14" value="" style="edgeStyle=orthogonalEdgeStyle;rounded=0;orthogonalLoop=1;jettySize=auto;html=1;" parent="WIyWlLk6GJQsqaUBKTNV-1" source="KUXQ1VHfoV5WeQ_K9mZH-11" target="KUXQ1VHfoV5WeQ_K9mZH-13" edge="1">
          <mxGeometry relative="1" as="geometry" />
        </mxCell>
        <mxCell id="KUXQ1VHfoV5WeQ_K9mZH-17" value="" style="edgeStyle=orthogonalEdgeStyle;rounded=0;orthogonalLoop=1;jettySize=auto;html=1;" parent="WIyWlLk6GJQsqaUBKTNV-1" source="KUXQ1VHfoV5WeQ_K9mZH-11" target="KUXQ1VHfoV5WeQ_K9mZH-16" edge="1">
          <mxGeometry relative="1" as="geometry" />
        </mxCell>
        <mxCell id="KUXQ1VHfoV5WeQ_K9mZH-11" value="Gerando" style="rounded=0;whiteSpace=wrap;html=1;" parent="WIyWlLk6GJQsqaUBKTNV-1" vertex="1">
          <mxGeometry x="580" y="390" width="120" height="30" as="geometry" />
        </mxCell>
        <mxCell id="KUXQ1VHfoV5WeQ_K9mZH-18" style="edgeStyle=orthogonalEdgeStyle;rounded=0;orthogonalLoop=1;jettySize=auto;html=1;entryX=0.5;entryY=0;entryDx=0;entryDy=0;" parent="WIyWlLk6GJQsqaUBKTNV-1" source="KUXQ1VHfoV5WeQ_K9mZH-13" target="KUXQ1VHfoV5WeQ_K9mZH-16" edge="1">
          <mxGeometry relative="1" as="geometry" />
        </mxCell>
        <mxCell id="KUXQ1VHfoV5WeQ_K9mZH-13" value="Traduzindo" style="rounded=0;whiteSpace=wrap;html=1;" parent="WIyWlLk6GJQsqaUBKTNV-1" vertex="1">
          <mxGeometry x="620" y="310" width="120" height="30" as="geometry" />
        </mxCell>
        <mxCell id="KUXQ1VHfoV5WeQ_K9mZH-20" value="" style="edgeStyle=orthogonalEdgeStyle;rounded=0;orthogonalLoop=1;jettySize=auto;html=1;" parent="WIyWlLk6GJQsqaUBKTNV-1" source="KUXQ1VHfoV5WeQ_K9mZH-16" target="KUXQ1VHfoV5WeQ_K9mZH-19" edge="1">
          <mxGeometry relative="1" as="geometry" />
        </mxCell>
        <mxCell id="KUXQ1VHfoV5WeQ_K9mZH-16" value="Gerando" style="rounded=0;whiteSpace=wrap;html=1;" parent="WIyWlLk6GJQsqaUBKTNV-1" vertex="1">
          <mxGeometry x="780" y="390" width="120" height="30" as="geometry" />
        </mxCell>
        <mxCell id="KUXQ1VHfoV5WeQ_K9mZH-22" value="" style="edgeStyle=orthogonalEdgeStyle;rounded=0;orthogonalLoop=1;jettySize=auto;html=1;" parent="WIyWlLk6GJQsqaUBKTNV-1" source="KUXQ1VHfoV5WeQ_K9mZH-19" target="KUXQ1VHfoV5WeQ_K9mZH-21" edge="1">
          <mxGeometry relative="1" as="geometry" />
        </mxCell>
        <mxCell id="KUXQ1VHfoV5WeQ_K9mZH-19" value="Corrigindo" style="rounded=0;whiteSpace=wrap;html=1;" parent="WIyWlLk6GJQsqaUBKTNV-1" vertex="1">
          <mxGeometry x="980" y="390" width="120" height="30" as="geometry" />
        </mxCell>
        <mxCell id="KUXQ1VHfoV5WeQ_K9mZH-21" value="Emissor" style="rounded=0;whiteSpace=wrap;html=1;" parent="WIyWlLk6GJQsqaUBKTNV-1" vertex="1">
          <mxGeometry x="1180" y="390" width="120" height="30" as="geometry" />
        </mxCell>
      </root>
    </mxGraphModel>
  </diagram>
</mxfile>
